<?xml version="1.0" encoding="utf-8"?>
<!-- Generator: Adobe Illustrator 23.1.1, SVG Export Plug-In . SVG Version: 6.00 Build 0)  -->
<svg version="1.1" id="Layer_1" xmlns="http://www.w3.org/2000/svg" xmlns:xlink="http://www.w3.org/1999/xlink" x="0px" y="0px"
	 viewBox="0 0 45 45" style="enable-background:new 0 0 45 45;" xml:space="preserve">
<style type="text/css">
	.st0{fill:#CDD1D5;}
</style>
<title>logo_simbolo</title>
<g>
	<path class="st0" d="M31.7,8.2L22,2.6l-9.7,5.6v11.2L22,25l9.7-5.6L31.7,8.2L31.7,8.2z M29.9,18.3L22,22.9L14,18.3V9.2L22,4.6
		l7.9,4.6V18.3z"/>
	<path class="st0" d="M32.3,20.1l-9.7,5.6v11.2l9.7,5.6l9.7-5.6V25.7L32.3,20.1z M40.2,35.9l-7.9,4.6l-7.9-4.6v-9.1l7.9-4.6l7.9,4.6
		V35.9z"/>
	<polygon class="st0" points="2.9,26.2 2.9,36.4 11.7,41.5 20.6,36.4 20.6,26.2 11.7,21.2 	"/>
</g>
</svg>
