<?xml version="1.0" encoding="utf-8"?>
<!-- Generator: Adobe Illustrator 21.0.0, SVG Export Plug-In . SVG Version: 6.00 Build 0)  -->
<svg version="1.1" id="Layer_1" xmlns="http://www.w3.org/2000/svg" xmlns:xlink="http://www.w3.org/1999/xlink" x="0px" y="0px"
	 viewBox="0 0 302.1 48" style="enable-background:new 0 0 302.1 48;" xml:space="preserve">
<style type="text/css">
	.st0{fill:#FFFFFF;}
</style>
<path class="st0" d="M47.1,26.3l-9-15.6C34.3,4.1,27.3,0,19.7,0h-5.3l10.6,18.5c2.8,4.9,7.9,7.9,13.6,7.9L47.1,26.3L47.1,26.3z"/>
<path class="st0" d="M11.9,4.4L2.9,20C-1,26.6-1,34.8,2.9,41.4l2.7,4.7l10.6-18.5c2.8-4.9,2.8-10.8,0-15.7L11.9,4.4z"/>
<path class="st0" d="M16,38.6L11.6,46h16.9c7.6,0,14.7-4.1,18.5-10.7l2.7-4.7H29.5C23.9,30.7,18.7,33.7,16,38.6z"/>
<g>
	<path class="st0" d="M84.4,32.3c0.4-0.7,0.9-0.8,1.6-0.4l2.6,1.5c0.6,0.4,0.8,0.9,0.4,1.6c-2.1,3.7-5.6,5.6-10.3,5.6
		c-7.7,0-11.9-4.2-11.9-11.9V18.3c0-7.7,4.2-11.9,11.9-11.9c4.8,0,8.3,1.9,10.4,5.6c0.3,0.6,0.2,1.2-0.4,1.6l-2.5,1.6
		c-0.6,0.4-1.2,0.2-1.6-0.4c-1.4-2.1-3.3-3.2-5.8-3.2c-3.9,0-5.9,2.4-5.9,7.3v9.3c0,4.9,2,7.3,5.9,7.3
		C81.2,35.4,83.1,34.3,84.4,32.3z"/>
	<path class="st0" d="M111.8,24.1v7c0,6.1-3.4,9.5-9.7,9.5s-9.7-3.3-9.7-9.5v-7c0-6.1,3.4-9.5,9.7-9.5
		C108.4,14.6,111.8,18,111.8,24.1z M106.4,24.5c0-3.4-1.4-5.2-4.2-5.2s-4.3,1.7-4.3,5.2v6.2c0,3.5,1.4,5.2,4.3,5.2
		c2.8,0,4.2-1.7,4.2-5.2V24.5z"/>
	<path class="st0" d="M148.5,23.9v14.9c0,0.7-0.4,1.1-1.1,1.1h-3.1c-0.7,0-1.1-0.4-1.1-1.1V24.2c0-3.3-1.3-4.9-3.9-4.9
		c-2.5,0-3.8,1.6-3.8,4.9v14.6c0,0.7-0.4,1.1-1.1,1.1h-3.1c-0.7,0-1.1-0.4-1.1-1.1V24.2c0-3.3-1.3-4.9-3.9-4.9
		c-2.5,0-3.8,1.6-3.8,4.9v14.6c0,0.7-0.4,1.1-1.1,1.1h-3.1c-0.7,0-1.1-0.4-1.1-1.1V23.9c0-6,3.1-9.3,8.9-9.3c3.1,0,5.4,0.9,6.9,2.8
		h0.1c1.5-1.9,3.8-2.8,6.8-2.8C145.3,14.6,148.5,17.9,148.5,23.9z"/>
	<path class="st0" d="M173.4,31.1c0,6.1-3.1,9.5-8.7,9.5c-2.2,0-3.9-0.6-5.1-1.9h-0.1v8.2c0,0.7-0.4,1.1-1.1,1.1h-3.1
		c-0.7,0-1.1-0.4-1.1-1.1V24.1c0-6.1,3.4-9.5,9.7-9.5s9.7,3.3,9.7,9.5v7H173.4z M168,24.5c0-3.5-1.4-5.2-4.3-5.2
		c-2.8,0-4.2,1.7-4.2,5.2v6.2c0,3.4,1.4,5.2,4.2,5.2s4.3-1.7,4.3-5.2V24.5z"/>
	<path class="st0" d="M178.4,24c0-6.2,2.9-9.4,8.7-9.4c2.1,0,4,0.4,5.6,1.4c0.6,0.3,0.7,0.9,0.4,1.5l-1.1,2
		c-0.3,0.6-0.8,0.7-1.5,0.4c-0.8-0.4-1.8-0.7-2.7-0.7c-2.5,0-3.8,1.5-3.8,4.5v15c0,0.7-0.4,1.1-1.1,1.1h-3.1c-0.7,0-1.1-0.4-1.1-1.1
		V24H178.4z"/>
	<path class="st0" d="M213.9,24.5v6.6c0,6.1-3.4,9.5-9.8,9.5c-6,0-9.3-2.7-9.3-7.9c0-4.8,3.2-7.6,9-7.6h4.6v-0.2
		c0-3.9-1.5-5.6-5-5.6c-1.5,0-3,0.5-4.4,1.6c-0.6,0.4-1.1,0.4-1.6-0.2l-1.3-2.1c-0.4-0.6-0.3-1.1,0.2-1.6c2.2-1.5,4.7-2.3,7.6-2.3
		C210.5,14.6,213.9,18,213.9,24.5z M208.5,30.7v-1.5h-3.9c-2.7,0-4.3,1.2-4.3,3.4s1.3,3.3,3.8,3.3C207.1,35.9,208.5,34.1,208.5,30.7
		z"/>
	<path class="st0" d="M227.6,40.6c-3.9,0-6.9-0.9-9-2.6c-0.5-0.4-0.6-0.9-0.2-1.6l1.3-2c0.4-0.6,0.9-0.7,1.5-0.2
		c1.8,1.2,3.7,1.9,5.7,1.9c2.6,0,4-1,4-3c0-1.6-1.1-2.4-4.6-3c-5.8-0.8-7.9-3.1-7.9-7.7s3.6-7.6,9.1-7.6c2.9,0,5.4,0.6,7.4,1.9
		c0.5,0.3,0.6,0.9,0.3,1.6l-1.2,2c-0.3,0.6-0.9,0.7-1.5,0.3c-1.2-0.8-2.6-1.2-4.3-1.2c-2.8,0-4.2,1-4.2,3c0,1.5,1,2.3,4.4,2.7
		c5.8,0.8,8.1,3.2,8.1,8C236.3,37.6,233,40.6,227.6,40.6z"/>
	<path class="st0" d="M268.6,23.2c3.5,1.1,5.3,3.7,5.3,8c0,6.2-3.5,8.9-11.5,8.9h-10.1c-0.7,0-1.1-0.4-1.1-1.1V8.1
		c0-0.7,0.4-1.1,1.1-1.1h9.2c8,0,11.5,2.6,11.5,8.7C273.1,19.3,271.6,21.8,268.6,23.2L268.6,23.2z M257.1,20.7h4.4
		c3.8,0,5.5-1.3,5.5-4.3c0-2.9-1.7-4.3-5.5-4.3h-4.4V20.7z M257.1,34.8h5.3c3.7,0,5.5-1.5,5.5-4.5s-1.7-4.4-5.5-4.4h-5.3V34.8z"/>
	<path class="st0" d="M285.3,27.5v11.3c0,0.7-0.4,1.1-1.1,1.1h-3.7c-0.7,0-1.1-0.4-1.1-1.1V8.1c0-0.7,0.4-1.1,1.1-1.1h9.2
		c8,0,12,3.4,12,10.2c0,5.2-2.2,8.4-6.6,9.7l6.8,11.7c0.4,0.8,0.1,1.4-0.8,1.4h-4.3c-0.6,0-1.1-0.2-1.4-0.8l-6.1-11.6h-4V27.5z
		 M285.3,22.4h4.3c4.1,0,6-1.6,6-5.1s-1.8-5.2-6-5.2h-4.3V22.4z"/>
</g>
</svg>
